<?xml version="1.0" encoding="UTF-8"?>
<svg width="1437px" height="400px" viewBox="0 0 1437 400" version="1.1" xmlns="http://www.w3.org/2000/svg" xmlns:xlink="http://www.w3.org/1999/xlink">
    <!-- Generator: Sketch 52.2 (67145) - http://www.bohemiancoding.com/sketch -->
    <title>Group</title>
    <desc>Created with Sketch.</desc>
    <g id="Page-1" stroke="none" stroke-width="1" fill="none" fill-rule="evenodd">
        <g id="Group">
            <g id="mugo_logo">
                <circle id="Oval" fill="#3E542F" cx="200" cy="200" r="200"></circle>
                <circle id="Oval" fill-opacity="0.49" fill="#5EEE3F" cx="153" cy="153" r="95"></circle>
                <circle id="Oval" fill-opacity="0.49" fill="#5EEE3F" cx="247" cy="153" r="95"></circle>
                <circle id="Oval" fill-opacity="0.49" fill="#5EEE3F" cx="153" cy="247" r="95"></circle>
                <circle id="Oval" fill-opacity="0.49" fill="#5EEE3F" cx="247" cy="247" r="95"></circle>
            </g>
            <path d="M492.544922,138.828125 L496.207031,151.035156 C504.345093,142.897095 516.552002,138.828125 532.828125,138.828125 C546.906971,138.828125 556.916637,142.897095 562.857422,151.035156 C573.274141,142.897095 585.643809,138.828125 599.966797,138.828125 C628.450012,138.828125 642.691406,151.035034 642.691406,175.449219 L642.691406,260.898438 L630.484375,260.898438 L630.484375,175.449219 C630.484375,159.173096 621.491952,151.035156 603.506836,151.035156 C585.52172,151.035156 574.169294,155.104126 569.449219,163.242188 L569.449219,260.898438 L557.242188,260.898438 L557.242188,174.228516 C556.835284,158.766199 548.697345,151.035156 532.828125,151.035156 C516.552002,151.035156 504.345093,155.104126 496.207031,163.242188 L496.207031,260.898438 L484,260.898438 L484,138.828125 L492.544922,138.828125 Z M751.006797,260.898438 L747.344687,248.691406 C739.206626,256.829468 726.999717,260.898438 710.723594,260.898438 L698.516562,260.898438 C674.102378,260.898438 661.895469,248.691528 661.895469,224.277344 L661.895469,138.828125 L674.1025,138.828125 L674.1025,224.277344 C674.1025,240.553467 682.240439,248.691406 698.516562,248.691406 L710.723594,248.691406 C726.999717,248.691406 739.206626,244.622437 747.344687,236.484375 L747.344687,138.828125 L759.551719,138.828125 L759.551719,260.898438 L751.006797,260.898438 Z M790.962812,309.726562 L790.962812,297.519531 L827.583906,297.519531 C851.998091,297.519531 864.205,285.312622 864.205,260.898438 L864.205,248.691406 C856.066938,256.829468 843.860029,260.898438 827.583906,260.898438 L815.376875,260.898438 C790.96269,260.898438 778.755781,248.691528 778.755781,224.277344 L778.755781,175.449219 C778.755781,151.035034 790.96269,138.828125 815.376875,138.828125 L827.583906,138.828125 C843.860029,138.828125 856.066938,142.897095 864.205,151.035156 L867.867109,138.828125 L876.412031,138.828125 L876.412031,260.898438 C876.412031,293.450684 860.136152,309.726562 827.583906,309.726562 L790.962812,309.726562 Z M827.583906,248.691406 C843.860029,248.691406 856.066938,244.622437 864.205,236.484375 L864.205,163.242188 C856.066938,155.104126 843.860029,151.035156 827.583906,151.035156 L815.376875,151.035156 C799.100752,151.035156 790.962812,159.173096 790.962812,175.449219 L790.962812,224.277344 C790.962812,240.553467 799.100752,248.691406 815.376875,248.691406 L827.583906,248.691406 Z M993.272344,224.277344 C993.272344,248.691528 981.065434,260.898438 956.65125,260.898438 L932.237187,260.898438 C907.823003,260.898438 895.616094,248.691528 895.616094,224.277344 L895.616094,175.449219 C895.616094,151.035034 907.823003,138.828125 932.237187,138.828125 L956.65125,138.828125 C981.065434,138.828125 993.272344,151.035034 993.272344,175.449219 L993.272344,224.277344 Z M907.823125,224.277344 C907.823125,240.553467 915.961064,248.691406 932.237187,248.691406 L956.65125,248.691406 C972.927373,248.691406 981.065312,240.553467 981.065312,224.277344 L981.065312,175.449219 C981.065312,159.173096 972.927373,151.035156 956.65125,151.035156 L932.237187,151.035156 C915.961064,151.035156 907.823125,159.173096 907.823125,175.449219 L907.823125,224.277344 Z M1165.95781,248.691406 L1196.47539,138.828125 L1208.68242,138.828125 L1174.50273,260.898438 L1157.41289,260.898438 L1129.33672,159.335938 L1101.26055,260.898438 L1084.1707,260.898438 L1049.99102,138.828125 L1062.19805,138.828125 L1092.71562,248.691406 L1123.2332,138.828125 L1135.44023,138.828125 L1165.95781,248.691406 Z M1233.99,205.966797 L1233.99,224.277344 C1233.99,240.553467 1242.12794,248.691406 1258.40406,248.691406 L1313.3357,248.691406 L1313.3357,260.898438 L1258.40406,260.898438 C1233.98988,260.898438 1221.78297,248.691528 1221.78297,224.277344 L1221.78297,175.449219 C1221.78297,151.035034 1233.98988,138.828125 1258.40406,138.828125 L1282.81812,138.828125 C1307.23231,138.828125 1319.43922,151.035034 1319.43922,175.449219 L1319.43922,205.966797 L1233.99,205.966797 Z M1233.99,193.759766 L1307.23219,193.759766 L1307.23219,175.449219 C1307.23219,159.173096 1299.09425,151.035156 1282.81812,151.035156 L1258.40406,151.035156 C1242.12794,151.035156 1233.99,159.173096 1233.99,175.449219 L1233.99,193.759766 Z M1350.85031,90 L1350.85031,151.035156 C1358.98837,142.897095 1371.19528,138.828125 1387.47141,138.828125 L1399.67844,138.828125 C1424.09262,138.828125 1436.29953,151.035034 1436.29953,175.449219 L1436.29953,224.277344 C1436.29953,248.691528 1424.09262,260.898438 1399.67844,260.898438 L1387.47141,260.898438 C1371.19528,260.898438 1358.98837,256.829468 1350.85031,248.691406 L1347.1882,260.898438 L1338.64328,260.898438 L1338.64328,90 L1350.85031,90 Z M1387.47141,151.035156 C1371.19528,151.035156 1358.98837,155.104126 1350.85031,163.242188 L1350.85031,236.484375 C1358.98837,244.622437 1371.19528,248.691406 1387.47141,248.691406 L1399.67844,248.691406 C1415.95456,248.691406 1424.0925,240.553467 1424.0925,224.277344 L1424.0925,175.449219 C1424.0925,159.173096 1415.95456,151.035156 1399.67844,151.035156 L1387.47141,151.035156 Z" id="mugo-web" fill="#000000"></path>
        </g>
    </g>
</svg>